<?xml version="1.0" encoding="UTF-8"?>
<svg width="20px" height="20px" viewBox="0 0 20 20" version="1.1" xmlns="http://www.w3.org/2000/svg" xmlns:xlink="http://www.w3.org/1999/xlink">
    <!-- Generator: sketchtool 53 (72520) - https://sketchapp.com -->
    <title>2DBB0F6F-5D62-4AB9-83B6-F4623F176301</title>
    <desc>Created with sketchtool.</desc>
    <g id="Page-1" stroke="none" stroke-width="1" fill="none" fill-rule="evenodd">
        <g id="Connected" transform="translate(-121.000000, -428.000000)" fill="#FFFFFF" fill-rule="nonzero">
            <g id="Group" transform="translate(121.000000, 428.000000)">
                <path d="M10,8.5 C8.8,8.5 7.6375,8.6875 6.55,9.04 L6.55,11.365 C6.55,11.665 6.3775,11.92 6.13,12.04 C5.395,12.4075 4.7275,12.88 4.1275,13.4275 C4,13.5625 3.8125,13.645 3.625,13.645 C3.4,13.645 3.2125,13.555 3.0775,13.42 L1.2175,11.56 C1.0825,11.425 1,11.2375 1,11.035 C1,10.825 1.0825,10.6375 1.2175,10.5025 C3.505,8.3275 6.595,7 10,7 C13.405,7 16.495,8.3275 18.7825,10.5025 C18.9175,10.6375 19,10.825 19,11.035 C19,11.2375 18.9175,11.425 18.7825,11.56 L16.9225,13.42 C16.7875,13.555 16.6,13.645 16.375,13.645 C16.1875,13.645 16,13.5625 15.865,13.4275 C15.2725,12.88 14.605,12.4075 13.87,12.04 C13.6225,11.92 13.45,11.665 13.45,11.365 L13.45,9.04 C12.3625,8.6875 11.2,8.5 10,8.5 Z" id="Shape"></path>
            </g>
        </g>
    </g>
</svg>