<?xml version="1.0" encoding="UTF-8"?>
<svg width="16px" height="16px" viewBox="0 0 16 16" version="1.1" xmlns="http://www.w3.org/2000/svg" xmlns:xlink="http://www.w3.org/1999/xlink">
    <!-- Generator: sketchtool 53 (72520) - https://sketchapp.com -->
    <title>8D825A64-A179-41F9-A0EC-6D680FE70D76</title>
    <desc>Created with sketchtool.</desc>
    <g id="Page-1" stroke="none" stroke-width="1" fill="none" fill-rule="evenodd">
        <g id="Connected" transform="translate(-37.000000, -298.000000)" fill="#000000" fill-rule="nonzero">
            <g id="Group-4-Copy" transform="translate(37.000000, 298.000000)">
                <g id="dialpad" transform="translate(4.000000, 3.000000)">
                    <path d="M4,9 C3.44771525,9 3,9.44771525 3,10 C3,10.5522847 3.44771525,11 4,11 C4.55228475,11 5,10.5522847 5,10 C5,9.44771525 4.55228475,9 4,9 L4,9 Z M1,0 C0.44771525,-5.55111512e-17 0,0.44771525 0,1 C0,1.55228475 0.44771525,2 1,2 C1.55228475,2 2,1.55228475 2,1 C2,0.44771525 1.55228475,0 1,0 L1,0 Z M1,3 C0.44771525,3 0,3.44771525 0,4 C0,4.55228475 0.44771525,5 1,5 C1.55228475,5 2,4.55228475 2,4 C2,3.44771525 1.55228475,3 1,3 L1,3 Z M1,6 C0.44771525,6 0,6.44771525 0,7 C0,7.55228475 0.44771525,8 1,8 C1.55228475,8 2,7.55228475 2,7 C2,6.44771525 1.55228475,6 1,6 L1,6 Z M7,2 C7.55228475,2 8,1.55228475 8,1 C8,0.44771525 7.55228475,0 7,0 C6.44771525,-5.55111512e-17 6,0.44771525 6,1 C6,1.55228475 6.44771525,2 7,2 L7,2 Z M4,6 C3.44771525,6 3,6.44771525 3,7 C3,7.55228475 3.44771525,8 4,8 C4.55228475,8 5,7.55228475 5,7 C5,6.44771525 4.55228475,6 4,6 L4,6 Z M7,6 C6.44771525,6 6,6.44771525 6,7 C6,7.55228475 6.44771525,8 7,8 C7.55228475,8 8,7.55228475 8,7 C8,6.44771525 7.55228475,6 7,6 L7,6 Z M7,3 C6.44771525,3 6,3.44771525 6,4 C6,4.55228475 6.44771525,5 7,5 C7.55228475,5 8,4.55228475 8,4 C8,3.44771525 7.55228475,3 7,3 L7,3 Z M4,3 C3.44771525,3 3,3.44771525 3,4 C3,4.55228475 3.44771525,5 4,5 C4.55228475,5 5,4.55228475 5,4 C5,3.44771525 4.55228475,3 4,3 L4,3 Z M4,0 C3.44771525,-5.55111512e-17 3,0.44771525 3,1 C3,1.55228475 3.44771525,2 4,2 C4.55228475,2 5,1.55228475 5,1 C5,0.44771525 4.55228475,0 4,0 Z" id="Shape"></path>
                </g>
            </g>
        </g>
    </g>
</svg>