<svg xmlns="http://www.w3.org/2000/svg" width="32" height="21" viewBox="0 0 32 21">
    <g fill="#000" fill-opacity=".4" fill-rule="nonzero">
        <path d="M0 9.382h1.875v2.237H0zM2.739 9.382h1.875v2.237H2.739zM5.478 8.436h1.875v4.128H5.478zM8.216 7.317h1.875v6.366H8.216zM10.954 5.34h1.875v10.322h-1.875zM13.693.65h1.875v19.7h-1.875zM16.432 2.328h1.875v16.344h-1.875zM19.171 5.683h1.875v9.634h-1.875zM21.91 7.704h1.874v5.592H21.91zM24.648 8.564h1.875v3.871h-1.875zM27.386 9.382h1.875v2.237h-1.875zM30.125 9.382H32v2.237h-1.875z"/>
    </g>
</svg>
