<svg xmlns="http://www.w3.org/2000/svg" width="24" height="24" viewBox="0 0 24 24">
    <path fill="#3885DE" fill-rule="nonzero" d="M15.052 13.4c.056-.462.098-.924.098-1.4 0-.476-.042-.938-.098-1.4h2.366c.112.448.182.917.182 1.4 0 .483-.07.952-.182 1.4h-2.366zm-1.239 3.892c.42-.777.742-1.617.966-2.492h2.065a5.62 5.62 0 0 1-3.031 2.492zm-.175-3.892h-3.276a9.288 9.288 0 0 1-.112-1.4c0-.476.042-.945.112-1.4h3.276c.063.455.112.924.112 1.4 0 .476-.049.938-.112 1.4zM12 17.572a9.494 9.494 0 0 1-1.337-2.772h2.674A9.494 9.494 0 0 1 12 17.572zM9.2 9.2H7.156a5.546 5.546 0 0 1 3.024-2.492c-.42.777-.735 1.617-.98 2.492zm-2.044 5.6H9.2c.245.875.56 1.715.98 2.492A5.606 5.606 0 0 1 7.156 14.8zm-.574-1.4A5.77 5.77 0 0 1 6.4 12c0-.483.07-.952.182-1.4h2.366A11.56 11.56 0 0 0 8.85 12c0 .476.042.938.098 1.4H6.582zM12 6.421A9.533 9.533 0 0 1 13.337 9.2h-2.674A9.533 9.533 0 0 1 12 6.421zM16.844 9.2h-2.065a10.954 10.954 0 0 0-.966-2.492A5.59 5.59 0 0 1 16.844 9.2zM12 5c-3.871 0-7 3.15-7 7a7 7 0 1 0 7-7z"/>
</svg>
