<?xml version="1.0" encoding="UTF-8"?>
<svg width="16px" height="16px" viewBox="0 0 16 16" version="1.1" xmlns="http://www.w3.org/2000/svg" xmlns:xlink="http://www.w3.org/1999/xlink">
    <!-- Generator: sketchtool 53 (72520) - https://sketchapp.com -->
    <title>A6172B5E-454C-444F-97FC-A4E62DFEB4AB</title>
    <desc>Created with sketchtool.</desc>
    <g id="Page-1" stroke="none" stroke-width="1" fill="none" fill-rule="evenodd">
        <g id="Connected" transform="translate(-178.000000, -299.000000)" fill="#000000" fill-rule="nonzero">
            <g id="Group-5-Copy" transform="translate(178.000000, 299.000000)">
                <g id="contacts" transform="translate(2.000000, 1.000000)">
                    <path d="M10.8,0 L1.2,0 L1.2,1.16666667 L10.8,1.16666667 L10.8,0 L10.8,0 Z M1.2,14 L10.8,14 L10.8,12.8333333 L1.2,12.8333333 L1.2,14 L1.2,14 Z M10.8,2.33333333 L1.2,2.33333333 C0.5372583,2.33333333 0,2.85566779 0,3.5 L0,10.5 C0,11.1443322 0.5372583,11.6666667 1.2,11.6666667 L10.8,11.6666667 C11.4627417,11.6666667 12,11.1443322 12,10.5 L12,3.5 C12,2.85566779 11.4627417,2.33333333 10.8,2.33333333 L10.8,2.33333333 Z M6,3.9375 C6.74558441,3.9375 7.35,4.52512627 7.35,5.25 C7.35,5.97487373 6.74558441,6.5625 6,6.5625 C5.25441559,6.5625 4.65,5.97487373 4.65,5.25 C4.65,4.52512627 5.25441559,3.9375 6,3.9375 L6,3.9375 Z M9,9.91666667 L3,9.91666667 L3,9.04166667 C3,8.0675 4.998,7.58333333 6,7.58333333 C7.002,7.58333333 9,8.0675 9,9.04166667 L9,9.91666667 Z" id="Shape"></path>
                </g>
            </g>
        </g>
    </g>
</svg>