<?xml version="1.0" encoding="UTF-8"?>
<svg width="16px" height="16px" viewBox="0 0 16 16" version="1.1" xmlns="http://www.w3.org/2000/svg" xmlns:xlink="http://www.w3.org/1999/xlink">
    <!-- Generator: sketchtool 53 (72520) - https://sketchapp.com -->
    <title>87DC6D65-8850-49A1-8BF7-8FC1BD62A8E2</title>
    <desc>Created with sketchtool.</desc>
    <g id="Page-1" stroke="none" stroke-width="1" fill="none" fill-rule="evenodd">
        <g id="Connected-muted" transform="translate(-23.000000, -109.000000)" fill="#FFFFFF" fill-rule="nonzero">
            <g id="Group-5-Copy-2" transform="translate(23.000000, 109.000000)">
                <path d="M12.6666667,8 C12.6666667,8.79333333 12.44,9.53333333 12.0666667,10.1866667 L11.2466667,9.36666667 C11.4266667,8.95333333 11.5333333,8.49333333 11.5333333,8 L12.6666667,8 L12.6666667,8 Z M10,8.10666667 L6,4.12 L6,4 C6,2.8954305 6.8954305,2 8,2 C9.1045695,2 10,2.8954305 10,4 L10,8 L10,8.10666667 L10,8.10666667 Z M2.84666667,2.66666667 L14,13.82 L13.1533333,14.6666667 L10.36,11.8733333 C9.84666667,12.18 9.27333333,12.3866667 8.66666667,12.48 L8.66666667,14.6666667 L7.33333333,14.6666667 L7.33333333,12.48 C5.14666667,12.1533333 3.33333333,10.2733333 3.33333333,8 L4.46666667,8 C4.46666667,10 6.16,11.4 8,11.4 C8.54,11.4 9.06666667,11.2733333 9.54,11.0533333 L8.43333333,9.94666667 L8,10 C6.8954305,10 6,9.1045695 6,8 L6,7.52 L2,3.51333333 L2.84666667,2.66666667 Z" id="Shape"></path>
            </g>
        </g>
    </g>
</svg>