<?xml version="1.0" encoding="UTF-8"?>
<svg width="29px" height="20px" viewBox="0 0 29 20" version="1.1" xmlns="http://www.w3.org/2000/svg" xmlns:xlink="http://www.w3.org/1999/xlink">
    <!-- Generator: sketchtool 53 (72520) - https://sketchapp.com -->
    <title>3A52E5E5-61C5-43B8-A09E-0F6BC5A36D8C</title>
    <desc>Created with sketchtool.</desc>
    <g id="Page-1" stroke="none" stroke-width="1" fill="none" fill-rule="evenodd">
        <g id="Connected-muted" transform="translate(-142.000000, -171.000000)" fill="#FFFFFF" fill-rule="nonzero">
            <g id="Group-2-Copy" transform="translate(142.000000, 171.000000)">
                <g id="sound" transform="translate(0.000000, 0.606061)">
                    <polygon id="Rectangle-path" points="0 8.3293884 1.69921875 8.3293884 1.69921875 10.459636 0 10.459636"></polygon>
                    <polygon id="Rectangle-path" points="2.48193555 8.3293884 4.1811543 8.3293884 4.1811543 10.459636 2.48193555 10.459636"></polygon>
                    <polygon id="Rectangle-path" points="4.96398438 7.42779933 6.66320312 7.42779933 6.66320312 11.3600795 4.96398438 11.3600795"></polygon>
                    <polygon id="Rectangle-path" points="7.44597656 6.36296194 9.14519531 6.36296194 9.14519531 12.4254897 7.44597656 12.4254897"></polygon>
                    <rect id="Rectangle-path" x="9.92740234" y="4.47901885" width="1.69921875" height="9.8309867"></rect>
                    <rect id="Rectangle-path" x="12.4093945" y="0.0134608278" width="1.69921875" height="18.7609571"></rect>
                    <rect id="Rectangle-path" x="14.8913867" y="1.61100333" width="1.69921875" height="15.5658721"></rect>
                    <rect id="Rectangle-path" x="17.3733789" y="4.80666112" width="1.69921875" height="9.17570214"></rect>
                    <polygon id="Rectangle-path" points="19.8553711 6.7312731 21.5545898 6.7312731 21.5545898 12.0566057 19.8553711 12.0566057"></polygon>
                    <rect id="Rectangle-path" x="22.3373633" y="7.55095159" width="1.69921875" height="3.68654841"></rect>
                    <polygon id="Rectangle-path" points="24.8187891 8.3293884 26.5180078 8.3293884 26.5180078 10.459636 24.8187891 10.459636"></polygon>
                    <polygon id="Rectangle-path" points="27.3007812 8.3293884 29 8.3293884 29 10.459636 27.3007812 10.459636"></polygon>
                </g>
            </g>
        </g>
    </g>
</svg>